# xmcd
#
# Track frame offsets: 
#        150
#        13747
#        34168
#        48074
#        63647
#        76037
#        91566
#        105582
#        116137
#        132005
#        142611
#
# Disc length: 2050 seconds
#
# Revision: 0
# Processed by: cddbd v1.5.2PL0 Copyright (c) Steve Scherf et al.
# Submitted via: ExactAudioCopyFreeDBPlugin 1.0
#
DISCID=7b08000b
DTITLE=Angelina - Vagabond Saint
DYEAR=2016
DGENRE=Americana
TTITLE0=Dark Heart
TTITLE1=Rose Cascade
TTITLE2=Mandolin Man
TTITLE3=I Don't Cry
TTITLE4=January Butterfly
TTITLE5=Prayers And Grace
TTITLE6=Vagabond Saint
TTITLE7=Smokes Like A Dream
TTITLE8=Manola
TTITLE9=Wild Cloud
TTITLE10=Sometimes
EXTD=
EXTT0=
EXTT1=
EXTT2=
EXTT3=
EXTT4=
EXTT5=
EXTT6=
EXTT7=
EXTT8=
EXTT9=
EXTT10=
PLAYORDER=
